<svg width="81" height="80" viewBox="0 0 81 80" fill="none" xmlns="http://www.w3.org/2000/svg">
<path d="M77.955 49.674C78.78 46.539 79.242 43.239 79.242 39.84C79.242 35.715 78.582 31.755 77.394 28.059C77.394 28.092 77.427 28.092 77.427 28.125C77.856 29.115 78.186 30.138 78.45 31.128L78.285 30.468C78.054 29.544 77.724 28.62 77.328 27.729C77.295 27.63 77.229 27.531 77.196 27.432C77.097 27.168 76.998 26.871 76.899 26.607C76.8 26.376 76.734 26.145 76.635 25.914C74.16 19.611 70.101 14.133 64.92 9.97502C65.58 10.404 66.207 10.866 66.768 11.394L66.339 10.998C65.778 10.503 65.151 10.041 64.524 9.64502C62.874 8.35802 61.125 7.23602 59.31 6.21302C59.079 6.08102 58.815 5.94902 58.584 5.81702C55.845 4.39802 52.875 3.30902 49.773 2.58302C49.938 2.61602 50.07 2.64902 50.235 2.68202L50.004 2.61602L49.806 2.58302C49.641 2.55002 49.509 2.51702 49.344 2.48402C46.704 1.89002 43.932 1.59302 41.094 1.59302C34.362 1.59302 28.059 3.34202 22.581 6.37802L22.251 6.54302C18.588 8.62202 15.288 11.295 12.516 14.43C12.351 14.562 12.186 14.727 12.054 14.892L11.79 15.255C11.922 15.09 12.087 14.925 12.252 14.793C8.95201 18.588 6.37801 23.043 4.79401 27.927C4.69501 28.158 4.59601 28.389 4.49701 28.62C4.46401 28.686 4.43101 28.785 4.398 28.851C4.332 29.049 4.26601 29.28 4.20001 29.478L4.068 29.973C4.134 29.709 4.23301 29.445 4.29901 29.181C4.33201 29.082 4.365 29.016 4.398 28.917C4.46401 28.719 4.53001 28.554 4.62901 28.356C4.43101 28.95 4.26601 29.544 4.13401 30.138C4.06801 30.402 4.00201 30.666 3.93601 30.93C3.24301 33.801 2.88 36.771 2.88 39.84C2.88 41.127 2.946 42.414 3.078 43.668C3.111 44.262 3.144 44.823 3.243 45.417L3.34201 46.077C3.24301 45.516 3.177 44.955 3.144 44.361C3.507 47.562 4.299 50.598 5.38801 53.502C5.42101 53.568 5.45401 53.667 5.48701 53.733C11.031 67.956 24.891 78.021 41.061 78.021C52.149 78.021 62.115 73.302 69.078 65.778C69.045 65.811 69.012 65.877 68.979 65.91L69.243 65.613C69.276 65.547 69.342 65.514 69.375 65.448C72.675 61.785 75.315 57.462 76.998 52.71C77.097 52.446 77.163 52.215 77.262 51.951C77.46 51.357 77.625 50.796 77.79 50.202C77.757 50.4 77.724 50.631 77.691 50.829C77.658 50.895 77.658 50.994 77.625 51.06C77.526 51.456 77.427 51.852 77.295 52.248L77.46 51.753C77.559 51.423 77.658 51.06 77.757 50.697C77.79 50.631 77.79 50.532 77.823 50.433C77.856 50.235 77.889 49.938 77.955 49.674ZM75.348 55.878C75.216 56.142 75.084 56.406 74.952 56.67C73.632 59.31 72.015 61.785 70.167 64.029C70.332 63.567 70.464 63.072 70.497 62.511C70.497 62.445 70.497 62.379 70.53 62.313C70.695 60.234 70.101 57.561 68.682 54.294C68.583 54.063 68.484 53.832 68.385 53.601C68.352 53.502 68.286 53.403 68.253 53.304C66.57 49.773 64.095 45.978 61.059 42.15C60.96 42.051 60.894 41.919 60.795 41.82C57.759 37.992 54.162 34.164 50.301 30.567C50.202 30.468 50.07 30.369 49.971 30.27C46.11 26.706 41.952 23.373 37.794 20.568C37.662 20.502 37.563 20.403 37.431 20.337C35.187 18.852 32.976 17.499 30.765 16.344C32.943 17.532 35.154 18.885 37.365 20.403C37.497 20.469 37.596 20.568 37.728 20.634C41.853 23.505 45.945 26.838 49.806 30.468C49.905 30.567 50.037 30.666 50.136 30.765C53.964 34.395 57.528 38.256 60.531 42.084C60.63 42.183 60.696 42.315 60.795 42.414C63.798 46.242 66.273 50.07 67.956 53.601C67.989 53.7 68.055 53.799 68.088 53.898C68.187 54.129 68.286 54.36 68.385 54.591C69.837 57.858 70.431 60.531 70.266 62.577C70.266 62.643 70.266 62.709 70.266 62.775C70.2 63.336 70.101 63.864 69.903 64.326C69.243 65.118 68.55 65.844 67.824 66.57C65.151 69.243 62.049 71.553 58.65 73.335C58.65 73.005 58.518 72.444 58.254 71.619C58.254 71.586 58.221 71.52 58.221 71.487C57.693 69.936 56.736 67.527 55.284 64.26C55.185 64.029 55.086 63.798 54.987 63.567C54.954 63.468 54.888 63.369 54.855 63.27C53.238 59.673 51.258 55.482 49.113 51.027C49.047 50.895 48.981 50.763 48.915 50.631C46.737 46.176 44.361 41.457 41.919 36.771C41.853 36.639 41.787 36.507 41.721 36.375C39.312 31.722 36.87 27.135 34.56 22.944C34.494 22.812 34.428 22.713 34.362 22.581C33.141 20.337 31.92 18.225 30.798 16.278C31.887 18.258 33.042 20.403 34.263 22.647C34.329 22.779 34.395 22.878 34.461 23.01C36.705 27.234 39.114 31.854 41.457 36.54C41.523 36.672 41.589 36.804 41.655 36.936C44.031 41.622 46.374 46.374 48.519 50.829C48.585 50.961 48.651 51.093 48.717 51.225C50.862 55.68 52.809 59.871 54.426 63.468C54.459 63.567 54.525 63.666 54.558 63.765C54.657 63.996 54.756 64.227 54.855 64.458C56.307 67.725 57.264 70.101 57.825 71.652C57.858 71.685 57.858 71.751 57.858 71.784C58.155 72.609 58.287 73.17 58.32 73.467C54.162 75.612 49.542 76.965 44.658 77.427C44.031 77.262 43.371 76.899 42.711 76.305C42.678 76.272 42.612 76.239 42.579 76.173C41.193 74.886 39.741 72.609 38.289 69.375C38.19 69.144 38.091 68.913 37.992 68.682C37.959 68.583 37.893 68.484 37.86 68.385C36.342 64.755 35.022 60.366 33.933 55.614C33.9 55.482 33.867 55.35 33.834 55.185C32.745 50.4 31.887 45.186 31.293 39.972C31.26 39.84 31.26 39.675 31.227 39.51C30.666 34.296 30.369 29.049 30.402 24.132C30.402 24 30.402 23.868 30.402 23.703C30.435 21.063 30.567 18.555 30.765 16.179C30.501 18.555 30.336 21.096 30.27 23.703C30.27 23.835 30.27 23.967 30.27 24.132C30.171 29.049 30.402 34.296 30.93 39.51C30.93 39.675 30.963 39.807 30.963 39.972C31.491 45.186 32.316 50.4 33.372 55.185C33.405 55.317 33.438 55.449 33.471 55.614C34.56 60.399 35.847 64.788 37.365 68.385C37.398 68.484 37.464 68.583 37.497 68.682C37.596 68.913 37.695 69.144 37.794 69.375C39.246 72.642 40.698 74.886 42.117 76.173C42.15 76.206 42.216 76.239 42.249 76.305C42.909 76.899 43.569 77.262 44.229 77.427C43.173 77.526 42.117 77.559 41.061 77.559C36.705 77.559 32.514 76.833 28.587 75.447C28.455 75.381 28.323 75.315 28.191 75.216C28.125 75.183 28.059 75.15 27.993 75.084C25.782 73.731 23.901 71.454 22.449 68.187C22.35 67.956 22.251 67.725 22.152 67.494C22.119 67.395 22.086 67.296 22.02 67.197C20.601 63.567 19.875 59.244 19.776 54.525C19.776 54.393 19.776 54.261 19.776 54.129C19.71 49.41 20.238 44.328 21.36 39.213C21.393 39.081 21.426 38.916 21.459 38.784C22.614 33.669 24.297 28.587 26.541 23.835C26.607 23.703 26.673 23.571 26.739 23.439C27.96 20.898 29.28 18.456 30.798 16.179C29.28 18.456 27.894 20.865 26.673 23.406C26.607 23.538 26.541 23.67 26.475 23.802C24.198 28.554 22.449 33.636 21.261 38.718C21.228 38.85 21.195 39.015 21.162 39.147C20.007 44.229 19.413 49.311 19.479 54.03C19.479 54.162 19.479 54.294 19.479 54.426C19.578 59.112 20.271 63.468 21.69 67.065C21.723 67.164 21.756 67.263 21.822 67.362C21.921 67.593 22.02 67.824 22.119 68.055C23.571 71.322 25.452 73.599 27.696 74.952C27.762 74.985 27.828 75.018 27.894 75.084C27.993 75.15 28.092 75.183 28.191 75.249C27.828 75.117 27.465 74.985 27.135 74.853C26.871 74.754 26.607 74.655 26.343 74.523C21.822 72.609 17.763 69.837 14.364 66.438C13.407 65.481 12.483 64.458 11.625 63.369C11.262 62.742 10.899 62.082 10.602 61.389C10.503 61.158 10.404 60.927 10.305 60.696C10.272 60.597 10.239 60.498 10.173 60.399C8.82001 56.835 8.55601 52.743 9.18301 48.453C9.21601 48.321 9.21601 48.222 9.24901 48.09C9.94201 43.8 11.559 39.312 13.935 34.956C14.001 34.824 14.067 34.692 14.133 34.593C16.575 30.237 19.809 25.98 23.67 22.185C23.769 22.086 23.901 21.954 24 21.855C26.079 19.809 28.356 17.895 30.798 16.179C28.29 18.06 25.98 19.974 23.868 21.987C23.769 22.086 23.637 22.185 23.538 22.317C19.644 26.112 16.377 30.303 13.935 34.659C13.869 34.791 13.803 34.89 13.737 35.022C11.328 39.378 9.67801 43.833 8.95201 48.09C8.91901 48.222 8.91901 48.321 8.88601 48.453C8.22601 52.71 8.49001 56.769 9.84301 60.366C9.87601 60.465 9.90901 60.564 9.97501 60.663C10.074 60.894 10.173 61.125 10.272 61.356C10.536 61.95 10.833 62.544 11.163 63.105C9.97501 61.587 8.91901 59.97 7.96201 58.287C7.86301 58.089 7.73101 57.891 7.63201 57.66C4.99201 52.71 3.44101 47.166 3.21001 41.259C3.30901 40.302 3.507 39.345 3.80401 38.388C3.83701 38.289 3.87 38.19 3.903 38.091C4.99201 34.527 7.13701 31.095 10.173 27.96C10.272 27.861 10.338 27.795 10.437 27.696C13.539 24.594 17.499 21.789 22.185 19.578C22.317 19.512 22.449 19.446 22.581 19.38C25.122 18.192 27.861 17.169 30.765 16.344C15.156 20.568 4.59601 30.435 3.21001 40.632C3.21001 40.368 3.21001 40.104 3.21001 39.84C3.21001 38.124 3.34201 36.441 3.54001 34.791C3.57301 34.56 3.606 34.296 3.639 34.065C4.03501 31.392 4.72801 28.818 5.65201 26.376C6.80701 24.528 8.45701 22.878 10.503 21.492C10.602 21.426 10.668 21.393 10.767 21.327C13.803 19.347 17.697 17.862 22.317 17.037C22.449 17.004 22.581 17.004 22.713 16.971C25.221 16.542 27.894 16.344 30.765 16.344C27.894 16.311 25.221 16.509 22.746 16.905C22.614 16.938 22.482 16.938 22.35 16.971C17.73 17.73 13.836 19.149 10.833 21.096C10.734 21.162 10.668 21.195 10.569 21.261C8.55601 22.614 6.97201 24.198 5.81701 25.947C7.56601 21.459 10.206 17.4 13.44 13.935C13.902 13.704 14.397 13.506 14.925 13.341C14.991 13.341 15.057 13.308 15.123 13.275C17.367 12.681 20.403 12.879 24.033 13.869C24.132 13.902 24.231 13.935 24.33 13.968C26.31 14.529 28.455 15.321 30.732 16.344C28.455 15.288 26.31 14.463 24.396 13.869C24.297 13.836 24.198 13.803 24.099 13.77C20.502 12.747 17.532 12.516 15.321 13.077C15.255 13.077 15.189 13.11 15.123 13.11C14.595 13.242 14.133 13.44 13.704 13.671C13.902 13.473 14.1 13.275 14.298 13.077C16.806 10.569 19.677 8.42402 22.812 6.67502C22.878 6.70802 22.944 6.74102 23.01 6.77402C23.043 6.77402 23.043 6.80702 23.076 6.80702C23.934 7.36802 25.32 8.85302 27.201 11.295C27.267 11.361 27.3 11.427 27.366 11.493C28.389 12.813 29.544 14.43 30.831 16.311C29.577 14.43 28.455 12.78 27.465 11.427C27.399 11.361 27.366 11.295 27.3 11.229C25.485 8.75402 24.165 7.23602 23.34 6.64202C23.307 6.64202 23.307 6.60902 23.274 6.60902C23.208 6.57602 23.142 6.54302 23.109 6.51002C26.442 4.69502 30.072 3.37502 33.933 2.64902C33.801 2.78102 33.669 2.91302 33.537 3.04502C33.504 3.07802 33.471 3.11102 33.471 3.14402C32.514 4.33202 31.788 6.57602 31.326 9.84302C31.326 9.94202 31.293 10.041 31.293 10.14C31.062 11.922 30.897 13.968 30.864 16.311C30.963 13.968 31.128 11.889 31.392 10.107C31.392 10.008 31.425 9.90902 31.425 9.81002C31.953 6.54302 32.745 4.29902 33.735 3.07802C33.768 3.04502 33.801 3.01202 33.834 2.97902C33.966 2.81402 34.131 2.68202 34.296 2.55002C36.507 2.15402 38.817 1.92302 41.16 1.92302C43.173 1.92302 45.186 2.08802 47.1 2.38502C45.978 2.48402 44.823 2.74802 43.668 3.24302C43.602 3.27602 43.503 3.30902 43.437 3.34202C40.731 4.49702 37.959 6.70802 35.253 9.90902C35.187 10.008 35.088 10.107 35.022 10.173C33.603 11.922 32.184 13.968 30.831 16.278C32.217 13.968 33.636 11.922 35.088 10.206C35.154 10.107 35.253 10.008 35.319 9.94202C38.058 6.74102 40.896 4.56302 43.635 3.40802C43.701 3.37502 43.8 3.34202 43.866 3.30902C45.087 2.81402 46.275 2.55002 47.43 2.48402C52.908 3.40802 57.957 5.48702 62.346 8.49002C62.379 8.52302 62.412 8.52302 62.412 8.55602H62.379C59.211 7.13702 55.482 6.67502 51.423 7.10402C51.324 7.10402 51.192 7.13702 51.06 7.13702C47.001 7.63202 42.612 9.05102 38.223 11.427C38.091 11.493 37.959 11.559 37.86 11.625C35.484 12.912 33.108 14.496 30.765 16.311C33.141 14.496 35.517 12.945 37.926 11.691C38.058 11.625 38.19 11.559 38.322 11.493C42.777 9.15002 47.166 7.76402 51.291 7.30202C51.423 7.30202 51.522 7.26902 51.654 7.26902C55.746 6.84002 59.508 7.36802 62.676 8.78702C62.742 8.82002 62.841 8.85302 62.907 8.88602C62.94 8.91902 62.973 8.91902 63.006 8.95202C64.755 10.173 66.372 11.559 67.89 13.077C71.388 16.575 74.193 20.766 76.14 25.419C74.391 22.647 71.883 20.337 68.847 18.489C68.748 18.423 68.649 18.357 68.55 18.291C64.953 16.179 60.597 14.727 55.812 13.968C55.68 13.935 55.548 13.935 55.416 13.902C50.598 13.209 45.351 13.242 40.005 14.1C39.84 14.133 39.708 14.133 39.543 14.166C36.672 14.628 33.768 15.354 30.864 16.311C33.768 15.387 36.672 14.694 39.543 14.232C39.708 14.199 39.84 14.199 40.005 14.166C45.384 13.374 50.631 13.374 55.449 14.1C55.581 14.133 55.713 14.133 55.845 14.166C60.63 14.925 64.986 16.443 68.616 18.555C68.715 18.621 68.814 18.687 68.913 18.753C72.081 20.667 74.655 23.109 76.404 25.98C76.734 26.871 77.064 27.762 77.328 28.686C77.394 28.917 77.46 29.148 77.526 29.379C78.483 32.679 78.978 36.177 78.978 39.807C78.978 42.546 78.681 45.186 78.153 47.76C78.12 45.78 77.658 43.635 76.668 41.424C76.569 41.193 76.47 40.962 76.371 40.764C76.338 40.665 76.272 40.566 76.239 40.467C74.49 37.002 71.718 33.702 68.22 30.666C68.121 30.567 68.022 30.501 67.923 30.402C64.359 27.399 60.069 24.726 55.383 22.515C55.251 22.449 55.119 22.383 54.987 22.317C50.268 20.139 45.12 18.456 39.873 17.4C39.708 17.367 39.576 17.334 39.411 17.301C36.606 16.773 33.735 16.41 30.93 16.278C33.735 16.443 36.573 16.806 39.411 17.4C39.576 17.433 39.708 17.466 39.873 17.499C45.12 18.588 50.235 20.337 54.954 22.548C55.086 22.614 55.218 22.68 55.35 22.746C60.036 24.99 64.326 27.696 67.857 30.732C67.956 30.831 68.055 30.897 68.154 30.996C71.652 34.032 74.424 37.365 76.173 40.83C76.206 40.929 76.272 41.028 76.305 41.127C76.404 41.358 76.503 41.589 76.602 41.787C77.625 44.097 78.087 46.275 78.087 48.321C77.328 50.994 76.47 53.502 75.348 55.878Z" stroke="white" stroke-width="2.5" stroke-miterlimit="10"/>
</svg>
